<?xml version="1.0" encoding="UTF-8"?>
<svg width="256px" height="256px" viewBox="0 0 256 256" version="1.1" xmlns="http://www.w3.org/2000/svg" xmlns:xlink="http://www.w3.org/1999/xlink">
    <title>dice4</title>
    <g id="Diice-SwiftUI" stroke="none" stroke-width="1" fill="none" fill-rule="evenodd">
        <g id="Dice-images" transform="translate(-952.000000, -510.000000)" fill-rule="nonzero">
            <g id="dice4" transform="translate(952.000000, 510.000000)">
                <path d="M234.308057,251 L154.69247,251 C144.921679,251 137,243.100434 137,233.356918 L137,21.6430823 C137,11.8995661 144.921679,4 154.69247,4 L234.30753,4 C244.078321,4 252,11.8995661 252,21.6430823 L252,233.357443 C252,243.100434 244.078321,251 234.308057,251" id="Path" fill="#FFA800"></path>
                <path d="M101.30753,251 L21.6924698,251 C11.921679,251 4,243.100434 4,233.356918 L4,21.6430823 C4,11.8995661 11.921679,4 21.6924698,4 L101.30753,4 C111.078321,4 119,11.8995661 119,21.6430823 L119,233.357443 C119,243.100434 111.077794,251 101.30753,251" id="Path" fill="#FFFFFF"></path>
                <path d="M220.319832,251 L34.6801685,251 C24.9161712,251 17,243.100434 17,233.356918 L17,21.6430823 C17,11.8995661 24.9161712,4 34.6801685,4 L220.319832,4 C230.083829,4 238,11.8995661 238,21.6430823 L238,233.357443 C238,243.100434 230.083302,251 220.319832,251" id="Path" fill="#FFE100"></path>
                <path d="M93,75.5 C93,85.164498 85.164498,93 75.5,93 C65.835502,93 58,85.164498 58,75.5 C58,65.835502 65.835502,58 75.5,58 C85.164498,58 93,65.835502 93,75.5" id="Path" fill="#FF8800"></path>
                <path d="M79,75.5 C79,85.164498 74.076465,93 68,93 C61.923535,93 57,85.164498 57,75.5 C57,65.835502 61.923535,58 68,58 C74.076465,58 79,65.835502 79,75.5" id="Path" fill="#FFA800"></path>
                <path d="M198,75.5 C198,85.164498 190.164498,93 180.5,93 C170.835502,93 163,85.164498 163,75.5 C163,65.835502 170.835502,58 180.5,58 C190.164498,58 198,65.835502 198,75.5" id="Path" fill="#FF8800"></path>
                <path d="M185,75.5 C185,85.164498 180.076465,93 174,93 C167.923535,93 163,85.164498 163,75.5 C163,65.835502 167.923535,58 174,58 C180.076465,58 185,65.835502 185,75.5" id="Path" fill="#FFA800"></path>
                <path d="M198,180.5 C198,190.164498 190.164498,198 180.5,198 C170.835502,198 163,190.164498 163,180.5 C163,170.835502 170.835502,163 180.5,163 C190.164498,163 198,170.836023 198,180.5" id="Path" fill="#FF8800"></path>
                <path d="M185,180.5 C185,190.164498 180.076465,198 174,198 C167.923535,198 163,190.164498 163,180.5 C163,170.835502 167.923535,163 174,163 C180.076465,163 185,170.836023 185,180.5" id="Path" fill="#FFA800"></path>
                <path d="M93,180.5 C93,190.164498 85.164498,198 75.5,198 C65.835502,198 58,190.164498 58,180.5 C58,170.835502 65.835502,163 75.5,163 C85.164498,163 93,170.836023 93,180.5" id="Path" fill="#FF8800"></path>
                <path d="M79,180.5 C79,190.164498 74.076465,198 68,198 C61.923535,198 57,190.164498 57,180.5 C57,170.835502 61.923535,163 68,163 C74.076465,163 79,170.836023 79,180.5" id="Path" fill="#FFA800"></path>
                <path d="M233.930282,256 L22.0686664,256 C9.90064543,256 0,246.119602 0,233.976465 L0,75.4048119 C0,72.9720924 1.97613371,71 4.41383842,71 C6.85154314,71 8.82767685,72.9720924 8.82767685,75.4048119 L8.82767685,233.975941 C8.82767685,241.262557 14.7671178,247.190376 22.0691921,247.190376 L233.930808,247.190376 C241.232356,247.190376 247.172323,241.263082 247.172323,233.975941 L247.172323,216.356693 C247.172323,213.921875 249.146354,211.951881 251.586162,211.951881 C254.025969,211.951881 256,213.921875 256,216.356693 L256,233.975941 C256,246.119602 246.098303,256 233.930282,256 Z" id="Path" fill="#000000"></path>
                <path d="M251.586153,185 C249.14634,185 247.172305,183.030006 247.172305,180.595188 L247.172305,22.0235347 C247.172305,14.7369182 241.232852,8.80909911 233.930763,8.80909911 L22.0692374,8.80909911 C14.7676739,8.80909911 8.82769497,14.7363936 8.82769497,22.0235347 L8.82769497,39.6427822 C8.82769497,42.0755017 6.85155721,44.0475941 4.41384749,44.0475941 C1.97613777,44.0475941 0,42.0755017 0,39.6427822 L0,22.0235347 C0,9.88039804 9.90066576,0 22.0692374,0 L233.931288,0 C246.099334,0 256,9.88039804 256,22.0235347 L256,180.594663 C256,183.029481 254.025965,185 251.586153,185 Z" id="Path" fill="#000000"></path>
                <path d="M9,57.5 C9,59.9842187 6.98421868,62 4.5,62 C2.01578132,62 0,59.9842187 0,57.5 C0,55.0157813 2.01578132,53 4.5,53 C6.98421868,53 9,55.0157813 9,57.5" id="Path" fill="#000000"></path>
                <path d="M256,198.5 C256,200.984219 253.984219,203 251.5,203 C249.015781,203 247,200.984219 247,198.5 C247,196.015781 249.015781,194 251.5,194 C253.984219,194 256,196.015781 256,198.5" id="Path" fill="#000000"></path>
                <path d="M189.590269,234 L33.025641,234 C26.946568,234 22,229.053704 22,222.970279 L22,88.4118883 C22,85.9752606 23.97453,84 26.4102564,84 C28.8459828,84 30.8205128,85.9752606 30.8205128,88.4118883 L30.8205128,222.970805 C30.8205128,224.185703 31.809091,225.176749 33.025641,225.176749 L189.589744,225.176749 C192.027571,225.176749 194,227.149908 194,229.588637 C194,232.027367 192.027571,234 189.590269,234 Z" id="Path" fill="#000000"></path>
                <path d="M222.958722,234 L207.500197,234 C205.058796,234 203.083476,232.024704 203.083476,229.583333 C203.083476,227.141962 205.058796,225.166667 207.500197,225.166667 L222.958722,225.166667 C224.174952,225.166667 225.167083,224.174547 225.167083,222.958333 L225.167083,33.0416667 C225.167083,31.8233484 224.174952,30.8333333 222.958722,30.8333333 L33.0418037,30.8333333 C31.8234703,30.8333333 30.8334429,31.8233484 30.8334429,33.0416667 L30.8334429,52.9166667 C30.8334429,55.3559334 28.8560184,57.3333333 26.4167215,57.3333333 C23.9774245,57.3333333 22,55.3559334 22,52.9166667 L22,33.0416667 C22,26.9537577 26.9538192,22 33.0418037,22 L222.958196,22 C229.048285,22 234,26.9537577 234,33.0416667 L234,222.958333 C234,229.048346 229.048811,234 222.958722,234 Z" id="Path" fill="#000000"></path>
                <path d="M31,70.5 C31,68.0157813 28.9842187,66 26.5,66 C24.0157813,66 22,68.0157813 22,70.5 C22,72.9842187 24.0157813,75 26.5,75 C28.9842187,75 31,72.9836827 31,70.5" id="Path" fill="#000000"></path>
                <path d="M75,97 C62.8698397,97 53,87.1301603 53,75 C53,62.8698397 62.8698397,53 75,53 C87.1301603,53 97,62.8698397 97,75 C97,87.1301603 87.1301603,97 75,97 Z M75,61.7996856 C67.7211701,61.7996856 61.7996856,67.720646 61.7996856,75 C61.7996856,82.279354 67.720646,88.2003144 75,88.2003144 C82.2788299,88.2003144 88.2003144,82.279354 88.2003144,75 C88.2003144,67.720646 82.279354,61.7996856 75,61.7996856 Z" id="Shape" fill="#000000"></path>
                <path d="M181,97 C168.86984,97 159,87.1301603 159,75 C159,62.8698397 168.86984,53 181,53 C193.13016,53 203,62.8698397 203,75 C203,87.1301603 193.13016,97 181,97 Z M181,61.7996856 C173.72117,61.7996856 167.799686,67.720646 167.799686,75 C167.799686,82.279354 173.720646,88.2003144 181,88.2003144 C188.27883,88.2003144 194.200314,82.279354 194.200314,75 C194.200314,67.720646 188.27883,61.7996856 181,61.7996856 Z" id="Shape" fill="#000000"></path>
                <path d="M181,203 C168.86984,203 159,193.13016 159,181 C159,168.86984 168.86984,159 181,159 C193.13016,159 203,168.86984 203,181 C203,193.13016 193.13016,203 181,203 Z M181,167.799686 C173.72117,167.799686 167.799686,173.720646 167.799686,181 C167.799686,188.279354 173.720646,194.200314 181,194.200314 C188.27883,194.200314 194.200314,188.279354 194.200314,181 C194.200314,173.720646 188.27883,167.799686 181,167.799686 Z" id="Shape" fill="#000000"></path>
                <path d="M75,203 C62.8698397,203 53,193.13016 53,181 C53,168.86984 62.8698397,159 75,159 C87.1301603,159 97,168.86984 97,181 C97.0005241,193.13016 87.1301603,203 75,203 Z M75,167.799686 C67.7211701,167.799686 61.7996856,173.720646 61.7996856,181 C61.7996856,188.279354 67.720646,194.200314 75,194.200314 C82.2788299,194.200314 88.2003144,188.279354 88.2003144,181 C88.2003144,173.720646 82.279354,167.799686 75,167.799686 Z" id="Shape" fill="#000000"></path>
            </g>
        </g>
    </g>
</svg>