<?xml version="1.0" encoding="UTF-8"?>
<svg width="956px" height="1039px" viewBox="0 0 956 1039" version="1.1" xmlns="http://www.w3.org/2000/svg" xmlns:xlink="http://www.w3.org/1999/xlink">
    <title>dice logo</title>
    <g id="Diice-SwiftUI" stroke="none" stroke-width="1" fill="none" fill-rule="evenodd">
        <g id="Diice-Icon" transform="translate(-422.000000, -380.000000)" fill-rule="nonzero">
            <g id="diice-logo" transform="translate(132.000000, 132.000000)">
                <g id="dice-logo" transform="translate(290.000000, 248.000000)">
                    <path d="M941,269.188955 L941,769.816628 C941,794.647836 926.711982,817.26614 904.27882,827.94898 L505.733294,1017.73282 C496.968785,1021.91906 487.473224,1024 478,1024 C468.526776,1024 459.053553,1021.91703 450.289044,1017.73282 L51.7232105,827.94695 C29.2880175,817.26614 15,794.647836 15,769.816628 L15,269.188955 C15,256.289152 18.8461491,243.988253 25.7200746,233.642425 C32.035557,224.068067 40.9503377,216.168612 51.7353947,211.060664 L450.289044,21.2626169 C467.818061,12.912461 488.183969,12.912461 505.733294,21.2626169 L904.286943,211.060664 C915.069969,216.168612 923.964443,224.068067 930.279925,233.642425 C937.153851,243.988253 941,256.287121 941,269.188955 Z" id="Path" fill="#FFE100"></path>
                    <path d="M930.267985,233.642425 C923.945468,224.068067 915.041087,216.168612 904.24605,211.060664 L505.248474,21.2626169 C487.677569,12.912461 467.29101,12.912461 449.742468,21.2626169 L447,22.5659964 L843.259174,211.060664 C854.054211,216.168612 862.958592,224.068067 869.281109,233.642425 C876.162691,243.988253 880.013124,256.289152 880.013124,269.188955 L880.013124,769.816628 C880.013124,794.647836 865.709192,817.26614 843.251042,827.94898 L447,1016.42944 L449.740435,1017.73282 C458.514706,1021.91906 467.998481,1024 477.482257,1024 C486.966032,1024 496.47217,1021.91703 505.246441,1017.73282 L904.235886,827.94898 C926.696068,817.26614 941,794.647836 941,769.816628 L941,269.188955 C941,256.287121 937.149567,243.988253 930.267985,233.642425 Z" id="Path" fill="#FFA800"></path>
                    <path d="M477,449.286486 L477,1024 C467.547237,1024 458.094474,1021.91798 449.348895,1017.73567 L51.6438947,828.036152 C29.2571579,817.358173 15,794.750159 15,769.93025 L15,269.530357 C15,256.636423 18.8378421,244.341122 25.6969211,234 L477,449.286486 Z" id="Path" fill="#FFE100"></path>
                    <path d="M940,269.530357 L940,769.942425 C940,794.488384 926.0245,816.909706 904.030868,827.723645 C903.816079,827.831196 903.581026,827.938747 903.366237,828.046298 L505.673395,1017.73567 C496.927816,1021.92001 487.452763,1024 478,1024 L478,449.286486 L929.303079,234 C936.162158,244.341122 940,256.634394 940,269.530357 L940,269.530357 Z" id="Path" fill="#FFE100"></path>
                    <path d="M929.303079,234 L878.201421,258.37753 C878.841737,262.024115 879.210526,265.745782 879.210526,269.530357 L879.210526,769.942425 C879.210526,794.488384 865.235026,816.909706 843.241395,827.723645 C843.026605,827.831196 842.791553,827.938747 842.576763,828.046298 L478,1001.93989 L478,1024 C487.452763,1024 496.927816,1021.91798 505.673395,1017.73567 L903.366237,828.046298 C903.581026,827.938747 903.816079,827.831196 904.030868,827.723645 C926.0245,816.909706 940,794.488384 940,769.942425 L940,269.530357 C940,256.634394 936.162158,244.341122 929.303079,234 Z" id="Path" fill="#FFA800"></path>
                    <g id="Group" transform="translate(86.000000, 88.000000)" fill="#FFA800">
                        <ellipse id="Oval" transform="translate(655.216256, 530.991797) rotate(-82.299345) translate(-655.216256, -530.991797) " cx="655.216256" cy="530.991797" rx="52.7169154" ry="38.8336181"></ellipse>
                        <ellipse id="Oval" transform="translate(263.150528, 445.681112) rotate(-3.151241) translate(-263.150528, -445.681112) " cx="263.150528" cy="445.681112" rx="38.6554151" ry="52.7435148"></ellipse>
                        <ellipse id="Oval" transform="translate(42.070315, 637.033928) rotate(-3.151241) translate(-42.070315, -637.033928) " cx="42.0703148" cy="637.033928" rx="38.6550783" ry="52.7435148"></ellipse>
                        <ellipse id="Oval" transform="translate(205.016194, 131.986763) rotate(-3.151241) translate(-205.016194, -131.986763) " cx="205.016194" cy="131.986763" rx="52.7076831" ry="38.6816938"></ellipse>
                        <ellipse id="Oval" transform="translate(387.493540, 41.648966) rotate(-3.151241) translate(-387.493540, -41.648966) " cx="387.49354" cy="41.6489658" rx="52.7076831" ry="38.6818981"></ellipse>
                        <ellipse id="Oval" transform="translate(578.652889, 138.249931) rotate(-3.151241) translate(-578.652889, -138.249931) " cx="578.652889" cy="138.249931" rx="52.7076831" ry="38.6816938"></ellipse>
                        <ellipse id="Oval" transform="translate(400.467652, 222.139831) rotate(-3.151241) translate(-400.467652, -222.139831) " cx="400.467652" cy="222.139831" rx="52.7076831" ry="38.6816938"></ellipse>
                    </g>
                    <path d="M940.773075,339.668131 C949.180156,339.668131 956,332.853775 956,324.448456 L956,269.322795 C956,238.280747 937.911177,210.410479 910.623683,197.481872 L512.259566,7.77167322 C490.48072,-2.5919105 465.509132,-2.58988121 443.754642,7.77370251 L153.302372,146.092134 C145.711237,149.706299 142.490079,158.789401 146.105002,166.376916 C149.719925,173.964431 158.802901,177.186944 166.394037,173.572778 L456.848336,35.2523176 C470.289111,28.8499078 485.714948,28.8499078 499.171961,35.2523176 L897.560435,224.972663 C900.02045,226.137476 902.352593,227.52551 904.567012,229.073858 L477.99797,432.217957 L51.4411064,229.079946 C53.6656745,227.527539 56.0099957,226.133417 58.4862485,224.960487 L107.777886,201.487691 C115.366992,197.873525 118.59018,188.790424 114.973227,181.202909 C111.356274,173.613364 102.277358,170.39491 94.6821627,174.009076 L45.4189409,197.467667 C17.8899113,210.511943 0,238.465412 0,269.322795 L0,769.711196 C0,800.229687 17.8127821,828.430729 45.3803763,841.558206 L311.500418,968.277216 C319.089524,971.891382 328.17453,968.670899 331.789453,961.081354 C335.404376,953.49181 332.183218,944.410737 324.592082,940.796572 L58.4740702,814.077562 C41.4467879,805.968519 30.4457306,788.555182 30.4457306,769.711196 L30.4457306,269.322795 C30.4457306,264.056787 31.2799436,258.884127 32.8996565,253.967158 L462.775105,458.683956 L462.775105,1006.13768 C460.747419,1005.47816 458.764387,1004.68877 456.846306,1003.77356 L383.2265,968.717572 C375.635365,965.097319 366.550359,968.32389 362.937465,975.913434 C359.322542,983.502979 362.5437,992.584051 370.134836,996.198217 L443.740434,1031.24811 C454.357875,1036.31931 466.205324,1039 478,1039 C489.810914,1039 501.664452,1036.31931 512.265655,1031.25623 L910.627743,841.570382 C910.71502,841.527767 910.853041,841.462829 910.940319,841.420214 L911.455866,841.170612 C938.516032,827.888909 956,799.846151 956,769.731489 L956,389.006257 C956,380.600938 949.184216,373.786582 940.777135,373.786582 C932.370054,373.786582 925.554269,380.600938 925.554269,389.006257 L925.554269,769.725401 C925.554269,788.321814 914.754154,805.637745 897.860833,813.929424 L499.157753,1003.77964 C497.239672,1004.69485 495.25461,1005.48425 493.224895,1006.14377 L493.224895,458.681927 L923.100344,253.965129 C924.720056,258.882098 925.554269,264.054758 925.554269,269.320766 L925.554269,324.446427 C925.55021,332.853775 932.365994,339.668131 940.773075,339.668131 L940.773075,339.668131 Z" id="Path" fill="#000000"></path>
                    <path d="M687.842573,611.285551 C681.972999,654.536065 707.613234,686 738.516967,686 C766.15847,686 790.431985,660.771377 795.191099,625.713183 C800.297994,588.092865 780.722579,555.45513 750.624234,551.409564 C720.509619,547.368047 692.949469,573.667257 687.842573,611.285551 L687.842573,611.285551 Z M764.956489,621.651427 C762.282029,641.36521 749.001254,657.195332 736.491293,655.507487 C724.003704,653.829761 715.398656,635.063114 718.075149,615.349331 C720.751642,595.633524 734.064958,579.80745 746.540345,581.493271 C759.027934,583.17302 767.632982,601.937644 764.956489,621.651427 Z" id="Shape" fill="#000000"></path>
                    <path d="M402.859487,531.058946 C400.781662,492.965831 375.50824,464.409215 345.290327,466.068797 C315.086645,467.718211 293.056011,498.849621 295.135869,536.940702 C297.156767,573.984375 321.124942,602.002034 350.220586,602 C378.161431,602 405.189416,573.748454 402.859487,531.058946 L402.859487,531.058946 Z M351.039923,571.470595 C338.585174,572.149885 326.671229,555.23882 325.583522,535.277052 C324.493782,515.315283 334.480352,497.208342 346.951366,496.527019 C359.414248,495.878236 371.318028,512.758794 372.407768,532.720562 C373.273867,548.592355 365.80427,570.663176 351.039923,571.470595 L351.039923,571.470595 Z" id="Shape" fill="#000000"></path>
                    <path d="M74.1390564,727.939929 C76.2960722,767.502359 102.601094,793.002034 129.347278,793 C158.075639,793 184.132635,763.650051 181.861771,722.057735 C179.621402,680.957636 151.596459,655.56576 124.293233,657.06275 C96.8476966,658.55974 71.9088524,687.114413 74.1390564,727.939929 Z M125.954196,687.525272 C140.793083,686.738132 150.543364,707.828196 151.411456,723.719475 C152.259218,739.264982 144.962772,761.656776 130.042565,762.472392 C115.203678,763.265633 105.45543,742.169467 104.587338,726.278188 C103.723312,710.405215 111.192564,688.330718 125.954196,687.525272 L125.954196,687.525272 Z" id="Shape" fill="#000000"></path>
                    <path d="M293.940827,274.870211 C332.032259,272.792202 360.579478,247.502307 358.932171,217.295948 C357.412988,189.460391 328.46106,164.941107 288.059331,167.137046 C249.9679,169.215055 221.418647,194.50495 223.067988,224.711308 C224.84952,257.294567 258.981313,276.789624 293.940827,274.870211 Z M289.720874,197.589431 C305.132346,196.755788 327.649609,203.947487 328.471229,218.957135 C329.150489,231.431288 312.240171,243.32799 292.279285,244.417826 C272.312297,245.519862 254.212258,235.52224 253.52893,223.048088 C252.847637,210.575969 269.759988,198.679267 289.720874,197.589431 Z" id="Shape" fill="#000000"></path>
                    <path d="M470.059331,76.1361056 C431.9679,78.2139861 403.418647,103.50232 405.067988,133.70478 C406.53226,160.56474 434.426658,186.119417 475.940827,183.860586 C514.032259,181.782705 542.579478,156.494371 540.932171,126.291911 C539.280797,96.089451 508.152797,74.0541589 470.059331,76.1361056 L470.059331,76.1361056 Z M474.279285,153.412114 C458.694947,154.255872 436.344449,146.944661 435.52893,132.045729 C434.84967,119.57438 451.759988,107.678412 471.720874,106.588643 C487.392661,105.73472 509.657744,113.082528 510.471229,127.957062 C511.150489,140.426378 494.240171,152.322345 474.279285,153.412114 L474.279285,153.412114 Z" id="Shape" fill="#000000"></path>
                    <path d="M666.943659,280.85672 C708.04265,278.616346 733.428517,250.591346 731.937743,223.290097 C730.412394,195.342351 701.308745,170.940169 661.061915,173.13785 C622.968878,175.215583 594.420455,200.502123 596.067831,230.704473 C597.589112,258.509908 625.938223,283.107259 666.943659,280.85672 Z M662.723528,203.586194 C678.13565,202.752661 700.653862,209.943407 701.475516,224.951063 C702.284968,239.757453 681.204651,249.536216 665.282046,250.406343 C645.324386,251.510265 627.211381,241.511938 626.530058,229.041473 C625.85077,216.571009 642.763834,204.675886 662.723528,203.586194 Z" id="Shape" fill="#000000"></path>
                    <path d="M483.061959,257.137399 C444.968896,259.215277 416.420454,284.50358 418.067831,314.708036 C419.64606,343.590945 448.180265,365 483.987337,365 C527.429292,365 555.501825,335.930041 553.937834,307.293143 C552.412484,279.341415 523.314916,254.943632 483.061959,257.137399 L483.061959,257.137399 Z M487.280059,334.413312 C467.306115,335.507146 449.211402,325.518287 448.528045,313.046953 C447.848756,300.573586 464.759798,288.677634 484.721539,287.587866 C500.119434,286.756308 522.651898,293.933323 523.473553,308.956258 C524.285038,323.76368 503.204708,333.543124 487.280059,334.413312 Z" id="Shape" fill="#000000"></path>
                </g>
            </g>
        </g>
    </g>
</svg>